<svg width="24" height="24" viewBox="0 0 24 24" fill="none" xmlns="http://www.w3.org/2000/svg">
<path d="M15.6924 7.40234C15.7785 7.4009 15.9704 7.42259 16.0947 7.52344C16.1996 7.6087 16.2284 7.72389 16.2422 7.80469C16.256 7.8856 16.2735 8.07001 16.2598 8.21387C16.1034 9.85684 15.4272 13.8429 15.083 15.6826C14.9375 16.4609 14.6506 16.7223 14.373 16.748C13.8954 16.792 13.5085 16.5158 13.0781 16.209C12.2054 15.5868 11.3031 14.998 10.4082 14.4082C9.52596 13.8266 9.89502 13.47 10.3877 12.9951C10.6233 12.768 10.8579 12.5403 11.0977 12.3174C11.9021 11.5696 13.4559 10.1252 13.4951 9.95801C13.5015 9.93055 13.507 9.82842 13.4463 9.77441C13.3856 9.72059 13.2961 9.73916 13.2314 9.75391C13.1386 9.77548 11.6779 10.7403 8.84961 12.6494C8.435 12.9342 8.05913 13.0737 7.72266 13.0664C7.3517 13.0584 6.63783 12.8559 6.10742 12.6836C6.02974 12.6583 5.954 12.6343 5.88086 12.6113C5.34171 12.4418 4.94572 12.3172 4.98535 12.001C5.00914 11.8141 5.26656 11.6231 5.75781 11.4277C8.78634 10.1083 10.8059 9.23768 11.8164 8.81738C14.7015 7.61737 15.3016 7.40923 15.6924 7.40234Z" fill="black" fill-opacity="0.5"/>
<path fill-rule="evenodd" clip-rule="evenodd" d="M12 1C18.0751 1 23 5.92487 23 12C23 18.0751 18.0751 23 12 23C5.92487 23 1 18.0751 1 12C1 5.92487 5.92487 1 12 1ZM12 2.7998C6.91898 2.7998 2.7998 6.91898 2.7998 12C2.7998 17.081 6.91898 21.2002 12 21.2002C17.081 21.2002 21.2002 17.081 21.2002 12C21.2002 6.91898 17.081 2.7998 12 2.7998Z" fill="black" fill-opacity="0.5"/>
</svg>
