<svg width="20" height="19" viewBox="0 0 20 19" fill="none" xmlns="http://www.w3.org/2000/svg">
<path d="M18.3808 3.5437L12.2358 0.616198C10.8831 -0.19177 9.19953 -0.206107 7.83328 0.578698L1.61914 3.5437C1.59582 3.55538 1.57164 3.56788 1.54914 3.5812C0.0744497 4.4244 -0.437504 6.30342 0.4057 7.77811C0.69152 8.27803 1.11195 8.68764 1.61914 8.96038L3.33332 9.77706V13.8604C3.33433 15.6863 4.52242 17.2994 6.26582 17.8421C7.47906 18.193 8.73707 18.3649 10 18.3521C11.2627 18.3662 12.5207 18.1958 13.7342 17.8462C15.4776 17.3036 16.6657 15.6905 16.6667 13.8646V9.77538L18.3334 8.9787V15.852C18.3334 16.3123 18.7064 16.6853 19.1667 16.6853C19.6269 16.6853 20 16.3123 20 15.852V5.85202C20.0055 4.87346 19.2329 3.96948 18.3808 3.5437ZM15 13.8646C15.0004 14.9567 14.2918 15.9228 13.25 16.2504C12.1935 16.5523 11.0987 16.6988 9.99996 16.6854C8.90125 16.6988 7.80644 16.5523 6.74996 16.2504C5.70812 15.9227 4.99953 14.9567 4.99996 13.8646V10.5712L7.76414 11.8879C8.44617 12.2929 9.22511 12.5057 10.0183 12.5037C10.7733 12.5091 11.5156 12.3092 12.1658 11.9254L15 10.5712V13.8646ZM17.6666 7.4562L11.3816 10.4562C10.5053 10.9665 9.4191 10.952 8.55664 10.4187L2.40746 7.4937C1.72203 7.12409 1.46601 6.26882 1.83562 5.58342C1.96062 5.35163 2.14804 5.15948 2.37664 5.0287L8.62246 2.04538C9.49906 1.53624 10.5847 1.55065 11.4475 2.08288L17.5925 5.01038C18.0444 5.26132 18.3271 5.73518 18.3333 6.25206C18.3341 6.74167 18.082 7.19698 17.6666 7.4562Z" fill="currentColor"/>
</svg>

