<svg width="24" height="24" viewBox="0 0 24 24" fill="none" xmlns="http://www.w3.org/2000/svg">
<path d="M2.25 3H3.63597C4.25534 3 4.73503 3.50921 4.69697 4.12643L4.10636 12.8264C4.02164 14.1423 5.0846 15.25 6.40421 15.25H18.75M6 21C6.55228 21 7 20.5523 7 20C7 19.4477 6.55228 19 6 19C5.44772 19 5 19.4477 5 20C5 20.5523 5.44772 21 6 21ZM18 21C18.5523 21 19 20.5523 19 20C19 19.4477 18.5523 19 18 19C17.4477 19 17 19.4477 17 20C17 20.5523 17.4477 21 18 21Z" stroke="currentColor" stroke-width="2" stroke-linecap="round" stroke-linejoin="round"/>
<path d="M6 6L8.5 6M6 6L18.4236 6C19.2258 6 19.7425 6.82914 19.4236 7.55279L17.5764 11.4472C17.2575 12.1709 16.4866 12.625 15.6404 12.625H8.5M6 6L8.5 12.625M8.5 6V12.625" stroke="currentColor" stroke-width="2" stroke-linecap="round" stroke-linejoin="round"/>
</svg>
