<?xml version="1.0" encoding="UTF-8"?>
<svg width="24" height="24" viewBox="0 0 24 24" version="1.1" xmlns="http://www.w3.org/2000/svg">
    <g stroke="none" stroke-width="1" fill="none" fill-rule="evenodd">
        <g fill="currentColor" fill-rule="nonzero">
            <path d="M18,10 C20.2091,10 22,11.7909 22,14 C22,15.0144 21.6224,15.9407 21,16.6458 L21,20.8382 C21,21.6559 20.1395,22.1878 19.4081,21.8221 L18,21.118 L16.5919,21.8221 C15.8605,22.1878 15,21.6559 15,20.8382 L15,16.6458 C14.3776,15.9407 14,15.0144 14,14 C14,11.7909 15.7909,10 18,10 Z M18,12 C16.8954,12 16,12.8954 16,14 C16,15.1046 16.8954,16 18,16 C19.1046,16 20,15.1046 20,14 C20,12.8954 19.1046,12 18,12 Z M20,4 C21.1046,4 22,4.89543 22,6 L22,8 C22,8.55228 21.5523,9 21,9 C20.4477,9 20,8.55228 20,8 L20,6 L4,6 L4,18 L13,18 C13.5523,18 14,18.4477 14,19 C14,19.5523 13.5523,20 13,20 L4,20 C2.89543,20 2,19.1046 2,18 L2,6 C2,4.89543 2.89543,4 4,4 L20,4 Z M11,13 C11.5523,13 12,13.4477 12,14 C12,14.5523 11.5523,15 11,15 L7,15 C6.44772,15 6,14.5523 6,14 C6,13.4477 6.44772,13 7,13 L11,13 Z M13,9 C13.5523,9 14,9.44772 14,10 C14,10.5523 13.5523,11 13,11 L7,11 C6.44772,11 6,10.5523 6,10 C6,9.44772 6.44772,9 7,9 L13,9 Z"/>
        </g>
    </g>
</svg>