<svg width="20" height="20" viewBox="0 0 20 20" fill="none" xmlns="http://www.w3.org/2000/svg">
<g clip-path="url(#clip0_110_2602)">
<path d="M18.3808 4.35815L12.2358 1.43065C10.8831 0.622683 9.19953 0.608347 7.83328 1.39315L1.61914 4.35815C1.59582 4.36983 1.57164 4.38233 1.54914 4.39565C0.0744497 5.23885 -0.437504 7.11788 0.4057 8.59257C0.69152 9.09249 1.11195 9.5021 1.61914 9.77483L3.33332 10.5915V14.6748C3.33433 16.5007 4.52242 18.1139 6.26582 18.6565C7.47906 19.0075 8.73707 19.1793 10 19.1665C11.2627 19.1807 12.5207 19.0103 13.7342 18.6607C15.4776 18.1181 16.6657 16.5049 16.6667 14.679V10.5898L18.3334 9.79315V16.6665C18.3334 17.1267 18.7064 17.4998 19.1667 17.4998C19.6269 17.4998 20 17.1267 20 16.6665V6.66647C20.0055 5.68792 19.2329 4.78393 18.3808 4.35815ZM15 14.679C15.0004 15.7712 14.2918 16.7372 13.25 17.0648C12.1935 17.3667 11.0987 17.5132 9.99996 17.4998C8.90125 17.5132 7.80644 17.3667 6.74996 17.0648C5.70812 16.7372 4.99953 15.7712 4.99996 14.679V11.3857L7.76414 12.7024C8.44617 13.1074 9.22511 13.3202 10.0183 13.3182C10.7733 13.3235 11.5156 13.1237 12.1658 12.7399L15 11.3857V14.679ZM17.6666 8.27065L11.3816 11.2707C10.5053 11.7809 9.4191 11.7665 8.55664 11.2332L2.40746 8.30815C1.72203 7.93854 1.46601 7.08327 1.83562 6.39788C1.96062 6.16608 2.14804 5.97393 2.37664 5.84315L8.62246 2.85983C9.49906 2.35069 10.5847 2.3651 11.4475 2.89733L17.5925 5.82483C18.0444 6.07577 18.3271 6.54964 18.3333 7.06651C18.3341 7.55612 18.082 8.01143 17.6666 8.27065Z" fill="black" fill-opacity="0.5"/>
</g>
<defs>
<clipPath id="clip0_110_2602">
<rect width="20" height="20" fill="white"/>
</clipPath>
</defs>
</svg>
