<svg width="20" height="20" viewBox="0 0 20 20" fill="none" xmlns="http://www.w3.org/2000/svg">
<path d="M14.9998 7.08356C14.9998 7.6361 14.7803 8.166 14.3896 8.5567C13.9989 8.9474 13.469 9.16689 12.9165 9.16689C12.3639 9.16689 11.834 8.9474 11.4433 8.5567C11.0526 8.166 10.8331 7.6361 10.8331 7.08356C10.8331 6.53103 11.0526 6.00112 11.4433 5.61042C11.834 5.21972 12.3639 5.00023 12.9165 5.00023C13.469 5.00023 13.9989 5.21972 14.3896 5.61042C14.7803 6.00112 14.9998 6.53103 14.9998 7.08356ZM14.9948 12.8052C14.949 14.1293 14.6185 15.4279 14.0256 16.6127C13.4794 17.6457 12.6592 18.5083 11.6551 19.1058C10.6509 19.7034 9.50158 20.0128 8.33314 20.0002H7.49981V15.4169C7.49609 14.6445 7.1876 13.9048 6.64142 13.3586C6.09525 12.8124 5.35555 12.504 4.58314 12.5002H-0.0001888V11.6669C-0.0128041 10.4985 0.29664 9.34912 0.894195 8.34496C1.49175 7.3408 2.35433 6.52062 3.38731 5.97439C4.57212 5.38156 5.87076 5.051 7.19481 5.00523C8.40885 3.43709 9.96795 2.16984 11.7511 1.30184C13.5342 0.433834 15.4934 -0.0115608 17.4765 0.000228063C17.8065 -0.00185712 18.1336 0.0612138 18.4392 0.185825C18.7448 0.310435 19.0227 0.494135 19.2571 0.726391C19.4916 0.958647 19.6778 1.23489 19.8053 1.53928C19.9327 1.84368 19.9988 2.17023 19.9998 2.50023C20.0139 4.48707 19.5697 6.45042 18.7017 8.23766C17.8336 10.0249 16.5651 11.5879 14.9948 12.8052ZM1.73648 10.8336H3.62148C4.24035 9.45522 4.96734 8.12802 5.79564 6.8644C5.22032 6.99824 4.66284 7.19964 4.13481 7.46439C3.49976 7.79974 2.95206 8.27914 2.53559 8.8642C2.11912 9.44926 1.84544 10.1237 1.73648 10.8336ZM13.1356 14.2044C11.872 15.0327 10.5448 15.7597 9.16648 16.3786V18.2636C9.87632 18.1546 10.5508 17.8809 11.1358 17.4644C11.7209 17.048 12.2003 16.5003 12.5356 15.8652C12.8004 15.3372 13.0018 14.7797 13.1356 14.2044ZM18.3331 2.47689C18.3271 2.25995 18.2366 2.05393 18.081 1.90267C17.9253 1.7514 17.7168 1.66681 17.4998 1.66689C13.1998 1.78939 10.2915 3.43689 7.48481 7.35189C6.7016 8.47956 6.01287 9.67 5.42564 10.9111C6.33558 11.0805 7.17288 11.5215 7.82736 12.176C8.48185 12.8305 8.92284 13.6678 9.09231 14.5777C10.3334 13.9905 11.5238 13.3018 12.6515 12.5186C16.5631 9.70856 18.2106 6.80023 18.3331 2.47689ZM5.10148 14.8994C5.56712 15.3698 5.82831 16.005 5.82831 16.6669C5.82831 17.3288 5.56712 17.964 5.10148 18.4344C4.34564 19.1894 2.08314 19.6552 1.14481 19.8211L-0.0268555 20.0269L0.178978 18.8552C0.345645 17.9169 0.810644 15.6544 1.56564 14.8986C2.0421 14.4441 2.67529 14.1906 3.33373 14.1908C3.99216 14.191 4.62524 14.4447 5.10148 14.8994ZM4.16648 16.6669C4.16677 16.5574 4.14535 16.449 4.10343 16.3478C4.06152 16.2467 3.99996 16.1549 3.92231 16.0777C3.76604 15.9215 3.55411 15.8337 3.33314 15.8337C3.11217 15.8337 2.90025 15.9215 2.74398 16.0777C2.42626 16.6513 2.20312 17.2723 2.08314 17.9169C2.72798 17.7964 3.34925 17.573 3.92314 17.2552C4.00054 17.1781 4.06189 17.0864 4.10366 16.9854C4.14542 16.8844 4.16677 16.7762 4.16648 16.6669Z" fill="#3572ED"/>
</svg>
