<svg width="24" height="24" viewBox="0 0 20 20" fill="none" xmlns="http://www.w3.org/2000/svg">
<path d="M18.3333 4.77009V1.66675C18.3333 1.20675 17.9608 0.833421 17.5 0.833421C17.0392 0.833421 16.6667 1.20675 16.6667 1.66675V3.63842L12.3308 0.712588C10.915 -0.242412 9.085 -0.242412 7.66917 0.712588L1.83583 4.64925C0.686667 5.42509 0 6.71592 0 8.10342V15.8334C0 18.1309 1.86917 20.0001 4.16667 20.0001H6.66667C7.1275 20.0001 7.5 19.6268 7.5 19.1668V12.5001C7.5 12.0409 7.87333 11.6668 8.33333 11.6668H11.6667C12.1267 11.6668 12.5 12.0409 12.5 12.5001V19.1668C12.5 19.6268 12.8725 20.0001 13.3333 20.0001H15.8333C18.1308 20.0001 20 18.1309 20 15.8334V8.10342C20 6.78592 19.38 5.55509 18.3333 4.77009ZM18.3333 15.8334C18.3333 17.2118 17.2117 18.3334 15.8333 18.3334H14.1667V12.5001C14.1667 11.1218 13.045 10.0001 11.6667 10.0001H8.33333C6.955 10.0001 5.83333 11.1218 5.83333 12.5001V18.3334H4.16667C2.78833 18.3334 1.66667 17.2118 1.66667 15.8334V8.10342C1.66667 7.27092 2.07833 6.49592 2.76833 6.03092L8.60167 2.09425C9.45167 1.52092 10.5483 1.52092 11.3975 2.09425L17.2308 6.03092C17.9208 6.49592 18.3325 7.27092 18.3325 8.10342L18.3333 15.8334Z" fill="currentColor" />
</svg>

