<svg width="24" height="24" viewBox="0 0 24 24" fill="none" xmlns="http://www.w3.org/2000/svg">
<path d="M11.5 1C9.4233 1 7.39323 1.61581 5.66652 2.76957C3.9398 3.92332 2.59399 5.5632 1.79927 7.48182C1.00455 9.40045 0.796614 11.5116 1.20176 13.5484C1.6069 15.5852 2.60693 17.4562 4.07538 18.9246C5.54383 20.3931 7.41475 21.3931 9.45156 21.7982C11.4884 22.2034 13.5996 21.9955 15.5182 21.2007C17.4368 20.406 19.0767 19.0602 20.2304 17.3335C21.3842 15.6068 22 13.5767 22 11.5C21.997 8.71615 20.8898 6.04718 18.9213 4.0787C16.9528 2.11022 14.2839 1.00301 11.5 1ZM19.0661 7.125H16.2478C15.6168 5.66286 14.7861 4.29532 13.7794 3.0615C16.0076 3.66781 17.907 5.12779 19.0661 7.125ZM15.4375 11.5C15.4303 12.3909 15.2899 13.2757 15.021 14.125H7.979C7.71007 13.2757 7.56969 12.3909 7.5625 11.5C7.56969 10.6091 7.71007 9.72434 7.979 8.875H15.021C15.2899 9.72434 15.4303 10.6091 15.4375 11.5ZM8.68075 15.875H14.3193C13.5766 17.3413 12.6271 18.6932 11.5 19.8895C10.3725 18.6936 9.42296 17.3415 8.68075 15.875ZM8.68075 7.125C9.42342 5.65874 10.3729 4.30676 11.5 3.1105C12.6276 4.30643 13.577 5.65846 14.3193 7.125H8.68075ZM9.225 3.0615C8.21671 4.29506 7.38451 5.66261 6.75225 7.125H3.93388C5.094 5.12688 6.9952 3.66678 9.225 3.0615ZM3.15338 8.875H6.1625C5.93567 9.73175 5.81807 10.6137 5.8125 11.5C5.81807 12.3863 5.93567 13.2682 6.1625 14.125H3.15338C2.61555 12.4163 2.61555 10.5837 3.15338 8.875ZM3.93388 15.875H6.75225C7.38451 17.3374 8.21671 18.7049 9.225 19.9385C6.9952 19.3332 5.094 17.8731 3.93388 15.875ZM13.7794 19.9385C14.7861 18.7047 15.6168 17.3371 16.2478 15.875H19.0661C17.907 17.8722 16.0076 19.3322 13.7794 19.9385ZM19.8466 14.125H16.8375C17.0643 13.2682 17.1819 12.3863 17.1875 11.5C17.1819 10.6137 17.0643 9.73175 16.8375 8.875H19.8449C20.3827 10.5837 20.3827 12.4163 19.8449 14.125H19.8466Z" fill="currentColor"/>
</svg>

