<svg width="24" height="24" viewBox="0 0 24 24" fill="none" xmlns="http://www.w3.org/2000/svg">
<path d="M20.9732 9.40764L17.5605 5.85189C17.3945 5.68491 17.1723 5.59251 16.9416 5.5946C16.7109 5.59669 16.4903 5.6931 16.3272 5.86305C16.164 6.03301 16.0715 6.26292 16.0695 6.50327C16.0675 6.74362 16.1562 6.97517 16.3164 7.14805L19.7291 10.7038C19.8305 10.8115 19.9191 10.9316 19.9931 11.0613C19.9799 11.0613 19.9693 11.054 19.9561 11.054L8.26902 11.0833C8.03568 11.0833 7.81191 11.1799 7.64691 11.3518C7.48192 11.5237 7.38923 11.7569 7.38923 12C7.38923 12.2431 7.48192 12.4762 7.64691 12.6482C7.81191 12.8201 8.03568 12.9166 8.26902 12.9166L19.9508 12.8873C19.9755 12.8873 19.9957 12.8745 20.0195 12.8726C19.9414 13.0277 19.8425 13.1703 19.7256 13.2961L16.3129 16.8519C16.2289 16.9364 16.1619 17.0376 16.1158 17.1494C16.0697 17.2613 16.0454 17.3816 16.0444 17.5033C16.0434 17.625 16.0656 17.7457 16.1098 17.8583C16.1541 17.971 16.2194 18.0733 16.302 18.1594C16.3846 18.2455 16.4829 18.3136 16.591 18.3596C16.6991 18.4057 16.8149 18.4289 16.9318 18.4279C17.0486 18.4268 17.164 18.4015 17.2714 18.3535C17.3787 18.3054 17.4758 18.2356 17.5569 18.1481L20.9696 14.5923C21.6294 13.9047 22 12.9722 22 12C22 11.0277 21.6294 10.0952 20.9696 9.40764H20.9732Z" fill="currentColor"/>
<path d="M9.15852 21.1667H7.39894C6.69894 21.1667 6.0276 20.8769 5.53263 20.3612C5.03765 19.8455 4.75958 19.146 4.75958 18.4167V5.58333C4.75958 4.85399 5.03765 4.15451 5.53263 3.63879C6.0276 3.12306 6.69894 2.83333 7.39894 2.83333H9.15852C9.39185 2.83333 9.61563 2.73676 9.78062 2.56485C9.94561 2.39294 10.0383 2.15978 10.0383 1.91667C10.0383 1.67355 9.94561 1.44039 9.78062 1.26849C9.61563 1.09658 9.39185 1 9.15852 1H7.39894C6.2327 1.00146 5.11462 1.48481 4.28996 2.34403C3.4653 3.20326 3.0014 4.3682 3 5.58333V18.4167C3.0014 19.6318 3.4653 20.7967 4.28996 21.656C5.11462 22.5152 6.2327 22.9985 7.39894 23H9.15852C9.39185 23 9.61563 22.9034 9.78062 22.7315C9.94561 22.5596 10.0383 22.3264 10.0383 22.0833C10.0383 21.8402 9.94561 21.6071 9.78062 21.4352C9.61563 21.2632 9.39185 21.1667 9.15852 21.1667Z" fill="currentColor"/>
</svg>

