<svg width="20" height="20" viewBox="0 0 20 20" fill="none" xmlns="http://www.w3.org/2000/svg">
<g clip-path="url(#clip0_111_1122)">
<path d="M19.2723 0.7325C18.2971 -0.2425 16.7117 -0.2425 15.7364 0.7325L10.1459 6.32167C9.51571 6.95083 9.16896 7.78833 9.16896 8.67833V10C9.16896 10.46 9.54155 10.8333 10.0025 10.8333H11.3245C12.2147 10.8333 13.0524 10.4858 13.6818 9.85667L19.2723 4.2675C20.2426 3.33667 20.2426 1.66333 19.2723 0.7325ZM18.0937 3.08917L12.5031 8.67833C12.188 8.99333 11.7696 9.16667 11.3245 9.16667H10.836V8.67833C10.836 8.24 11.0144 7.81 11.3245 7.5L16.9151 1.91083C17.241 1.58583 17.7678 1.58583 18.0937 1.91083C18.4171 2.22083 18.4171 2.77917 18.0937 3.08917ZM10.0025 15C9.54155 15 9.16896 14.6275 9.16896 14.1667C9.16896 13.7058 9.54155 13.3333 10.0025 13.3333H12.5031C12.9641 13.3333 13.3367 13.7058 13.3367 14.1667C13.3367 14.6275 12.9641 15 12.5031 15H10.0025ZM16.6708 11.6667V15.8333C16.6708 18.1308 14.8012 20 12.5031 20H4.16771C1.86963 20 0 18.1308 0 15.8333V4.16667C0 1.86917 1.86963 0 4.16771 0H11.6696C12.1305 0 12.5031 0.373333 12.5031 0.833333C12.5031 1.29333 12.1305 1.66667 11.6696 1.66667H4.16771C2.78903 1.66667 1.66708 2.78833 1.66708 4.16667V15.8333C1.66708 17.2117 2.78903 18.3333 4.16771 18.3333H12.5031C13.8818 18.3333 15.0038 17.2117 15.0038 15.8333V11.6667C15.0038 11.2058 15.3763 10.8333 15.8373 10.8333C16.2982 10.8333 16.6708 11.2058 16.6708 11.6667ZM7.64108 9.7225L6.23489 11.1283C5.87564 11.4875 5.40552 11.6683 4.93373 11.6683C4.48946 11.6683 4.04518 11.5075 3.69092 11.1833L3.13328 10.7008C2.7857 10.3992 2.74819 9.8725 3.0491 9.525C3.35167 9.17583 3.87764 9.14083 4.22522 9.44083L4.79953 9.93917C4.88539 10.0167 4.98958 10.0158 5.05543 9.95L6.46162 8.54417C6.78753 8.21833 7.31433 8.21833 7.64024 8.54417C7.96616 8.87 7.96699 9.39667 7.64108 9.7225ZM7.64108 5.58917L6.23489 6.995C5.87564 7.35417 5.40552 7.535 4.93373 7.535C4.48946 7.535 4.04518 7.37417 3.69092 7.05L3.13328 6.5675C2.7857 6.26583 2.74819 5.73917 3.0491 5.39167C3.35167 5.04333 3.87764 5.0075 4.22522 5.3075L4.79953 5.80583C4.88539 5.88417 4.98958 5.8825 5.05543 5.81667L6.46162 4.41083C6.78753 4.085 7.31433 4.085 7.64024 4.41083C7.96616 4.73667 7.96699 5.26333 7.64108 5.58917ZM7.64108 12.7108C7.96699 13.0367 7.96699 13.5633 7.64108 13.8892L6.23489 15.295C5.87564 15.6542 5.40552 15.835 4.93373 15.835C4.48946 15.835 4.04518 15.6742 3.69092 15.35L3.13328 14.8675C2.7857 14.5658 2.74819 14.04 3.0491 13.6917C3.35167 13.3442 3.87764 13.3067 4.22522 13.6075L4.79953 14.1058C4.88539 14.1833 4.98958 14.1825 5.05543 14.1167L6.46162 12.7108C6.78753 12.385 7.31516 12.385 7.64108 12.7108Z" fill="#3572ED"/>
</g>
<defs>
<clipPath id="clip0_111_1122">
<rect width="20" height="20" fill="white"/>
</clipPath>
</defs>
</svg>
