<svg width="24" height="24" viewBox="0 0 24 24" fill="none" xmlns="http://www.w3.org/2000/svg">
<path d="M9.25034 11.9995C12.2837 11.9995 14.7506 9.53289 14.7506 6.49977C14.7506 3.46665 12.2837 1 9.25034 1C6.21697 1 3.75011 3.46665 3.75011 6.49977C3.75011 9.53289 6.21697 11.9995 9.25034 11.9995ZM9.25034 2.83326C11.2726 2.83326 12.9172 4.47769 12.9172 6.49977C12.9172 8.52185 11.2726 10.1663 9.25034 10.1663C7.22809 10.1663 5.58352 8.52185 5.58352 6.49977C5.58352 4.47769 7.22809 2.83326 9.25034 2.83326ZM10.8546 15.8677C10.3339 15.7339 9.79395 15.6661 9.25034 15.6661C5.71186 15.6661 2.83341 18.5443 2.83341 22.0825C2.83341 22.5884 2.42273 22.9991 1.9167 22.9991C1.41068 22.9991 1 22.5884 1 22.0825C1 17.5341 4.70165 13.8328 9.25034 13.8328C9.94887 13.8328 10.6428 13.9199 11.3129 14.0931C11.8034 14.2196 12.0976 14.7192 11.972 15.2096C11.8465 15.7 11.3487 15.9942 10.8555 15.8686L10.8546 15.8677ZM22.1951 11.8886C21.1556 10.8492 19.3442 10.8492 18.3056 11.8886L12.1572 18.0365C11.4651 18.7285 11.0828 19.6497 11.0828 20.6296V22.0834C11.0828 22.5893 11.4935 23 11.9995 23H13.4534C14.4334 23 15.3538 22.6178 16.0459 21.9257L22.1942 15.7779C22.714 15.2582 23 14.5679 23 13.8328C23 13.0977 22.714 12.4074 22.1951 11.8886ZM20.898 14.4809L14.7487 20.6287C14.4031 20.9752 13.943 21.1658 13.4525 21.1658H12.9153V20.6287C12.9153 20.1392 13.106 19.6791 13.4525 19.3326L19.6018 13.1847C19.9474 12.8383 20.5515 12.8383 20.898 13.1847C21.0713 13.3571 21.1666 13.5871 21.1666 13.8328C21.1666 14.0785 21.0713 14.3076 20.898 14.4809Z" fill="black" fill-opacity="0.5"/>
</svg>
