<svg width="24" height="24" viewBox="0 0 24 24" fill="none" xmlns="http://www.w3.org/2000/svg">
<path d="M5.40991 21.7498C5.76991 21.7498 6.09991 21.6098 6.36991 21.3498L21.0299 7.87976C21.4999 7.45976 21.6299 6.82976 21.3699 6.27976C21.1099 5.72976 20.5399 5.39976 19.9299 5.47976L3.21991 7.50976C2.61991 7.58976 2.10991 7.99976 1.94991 8.56976C1.78991 9.13976 1.99991 9.74976 2.48991 10.0998L7.76991 13.8398C8.04991 14.0298 8.40991 14.0698 8.71991 13.9498L16.6099 10.9998C16.8499 10.9098 17.1099 10.9998 17.2499 11.2098C17.3899 11.4198 17.3699 11.6998 17.1999 11.8898L10.0499 19.9298C9.84991 20.1598 9.79991 20.4898 9.90991 20.7698C10.0199 21.0598 10.2799 21.2598 10.5899 21.2998L19.2299 22.4998C19.2899 22.5098 19.3399 22.5098 19.3999 22.5098C19.8999 22.5098 20.3799 22.2698 20.6699 21.8598C20.9999 21.3898 21.0599 20.7798 20.8299 20.2498L16.8799 11.2598C16.7699 11.0098 16.5399 10.8298 16.2699 10.7898C15.9999 10.7498 15.7299 10.8498 15.5499 11.0598L5.40991 21.7498Z" fill="currentColor"/>
</svg>
