<svg width="22" height="22" viewBox="0 0 22 22" fill="none" xmlns="http://www.w3.org/2000/svg">
<path d="M14.6924 6.40234C14.7785 6.4009 14.9704 6.42259 15.0947 6.52344C15.1996 6.6087 15.2284 6.72389 15.2422 6.80469C15.256 6.8856 15.2735 7.07001 15.2598 7.21387C15.1034 8.85684 14.4272 12.8429 14.083 14.6826C13.9375 15.4609 13.6506 15.7223 13.373 15.748C12.8954 15.792 12.5085 15.5158 12.0781 15.209C11.2054 14.5868 10.3031 13.998 9.4082 13.4082C8.52596 12.8266 8.89502 12.47 9.3877 11.9951C9.62329 11.768 9.8579 11.5403 10.0977 11.3174C10.9021 10.5696 12.4559 9.12524 12.4951 8.95801C12.5015 8.93055 12.507 8.82842 12.4463 8.77441C12.3856 8.72059 12.2961 8.73916 12.2314 8.75391C12.1386 8.77548 10.6779 9.74029 7.84961 11.6494C7.435 11.9342 7.05913 12.0737 6.72266 12.0664C6.3517 12.0584 5.63783 11.8559 5.10742 11.6836C5.02974 11.6583 4.954 11.6343 4.88086 11.6113C4.34171 11.4418 3.94572 11.3172 3.98535 11.001C4.00914 10.8141 4.26656 10.6231 4.75781 10.4277C7.78634 9.10826 9.80586 8.23768 10.8164 7.81738C13.7015 6.61737 14.3016 6.40923 14.6924 6.40234Z" fill="currentColor"/>
<path fill-rule="evenodd" clip-rule="evenodd" d="M11 0C17.0751 0 22 4.92487 22 11C22 17.0751 17.0751 22 11 22C4.92487 22 0 17.0751 0 11C0 4.92487 4.92487 0 11 0ZM11 1.7998C5.91898 1.7998 1.7998 5.91898 1.7998 11C1.7998 16.081 5.91898 20.2002 11 20.2002C16.081 20.2002 20.2002 16.081 20.2002 11C20.2002 5.91898 16.081 1.7998 11 1.7998Z" fill="currentColor"/>
</svg>

