<svg width="24" height="24" viewBox="0 0 24 24" fill="none" xmlns="http://www.w3.org/2000/svg">
<path d="M3.33944 24C2.6857 24 2.13235 23.7803 1.67941 23.3408C1.22647 22.9014 1 22.3646 1 21.7303V4.92549C1 4.29123 1.22647 3.75438 1.67941 3.31494C2.13235 2.8755 2.6857 2.65578 3.33944 2.65578H5.13115V0.965512C5.13115 0.690339 5.22616 0.460574 5.41618 0.276219C5.6062 0.0920727 5.84302 0 6.12665 0C6.41049 0 6.64731 0.0920727 6.83712 0.276219C7.02714 0.460574 7.12215 0.690339 7.12215 0.965512V2.65578H16.9277V0.941657C16.9277 0.674435 17.0205 0.450635 17.2062 0.270255C17.3922 0.0900847 17.6228 0 17.8983 0C18.1737 0 18.4043 0.0900847 18.59 0.270255C18.7759 0.450635 18.8689 0.674435 18.8689 0.941657V2.65578H20.6606C21.3143 2.65578 21.8676 2.8755 22.3206 3.31494C22.7735 3.75438 23 4.29123 23 4.92549V21.7303C23 22.3646 22.7735 22.9014 22.3206 23.3408C21.8676 23.7803 21.3143 24 20.6606 24H3.33944ZM3.33944 22.1167H20.6606C20.7602 22.1167 20.8514 22.0764 20.9343 21.9958C21.0173 21.9155 21.0588 21.827 21.0588 21.7303V9.94766H2.94118V21.7303C2.94118 21.827 2.9827 21.9155 3.06574 21.9958C3.14856 22.0764 3.23979 22.1167 3.33944 22.1167ZM2.94118 8.06435H21.0588V4.92549C21.0588 4.82881 21.0173 4.7403 20.9343 4.65994C20.8514 4.57938 20.7602 4.5391 20.6606 4.5391H3.33944C3.23979 4.5391 3.14856 4.57938 3.06574 4.65994C2.9827 4.7403 2.94118 4.82881 2.94118 4.92549V8.06435ZM12 14.6801C11.6832 14.6801 11.4131 14.5718 11.1899 14.3552C10.9669 14.1389 10.8554 13.8769 10.8554 13.5693C10.8554 13.2619 10.9669 12.9999 11.1899 12.7833C11.4131 12.5669 11.6832 12.4587 12 12.4587C12.3168 12.4587 12.5869 12.5669 12.8101 12.7833C13.0331 12.9999 13.1446 13.2619 13.1446 13.5693C13.1446 13.8769 13.0331 14.1389 12.8101 14.3552C12.5869 14.5718 12.3168 14.6801 12 14.6801ZM6.82353 14.6801C6.50669 14.6801 6.23665 14.5718 6.01341 14.3552C5.79039 14.1389 5.67888 13.8769 5.67888 13.5693C5.67888 13.2619 5.79039 12.9999 6.01341 12.7833C6.23665 12.5669 6.50669 12.4587 6.82353 12.4587C7.14037 12.4587 7.41041 12.5669 7.63365 12.7833C7.85667 12.9999 7.96818 13.2619 7.96818 13.5693C7.96818 13.8769 7.85667 14.1389 7.63365 14.3552C7.41041 14.5718 7.14037 14.6801 6.82353 14.6801ZM17.1765 14.6801C16.8596 14.6801 16.5896 14.5718 16.3664 14.3552C16.1433 14.1389 16.0318 13.8769 16.0318 13.5693C16.0318 13.2619 16.1433 12.9999 16.3664 12.7833C16.5896 12.5669 16.8596 12.4587 17.1765 12.4587C17.4933 12.4587 17.7634 12.5669 17.9866 12.7833C18.2096 12.9999 18.3211 13.2619 18.3211 13.5693C18.3211 13.8769 18.2096 14.1389 17.9866 14.3552C17.7634 14.5718 17.4933 14.6801 17.1765 14.6801ZM12 19.6056C11.6832 19.6056 11.4131 19.4973 11.1899 19.2807C10.9669 19.0644 10.8554 18.8025 10.8554 18.4951C10.8554 18.1875 10.9669 17.9255 11.1899 17.7091C11.4131 17.4925 11.6832 17.3842 12 17.3842C12.3168 17.3842 12.5869 17.4925 12.8101 17.7091C13.0331 17.9255 13.1446 18.1875 13.1446 18.4951C13.1446 18.8025 13.0331 19.0644 12.8101 19.2807C12.5869 19.4973 12.3168 19.6056 12 19.6056ZM6.82353 19.6056C6.50669 19.6056 6.23665 19.4973 6.01341 19.2807C5.79039 19.0644 5.67888 18.8025 5.67888 18.4951C5.67888 18.1875 5.79039 17.9255 6.01341 17.7091C6.23665 17.4925 6.50669 17.3842 6.82353 17.3842C7.14037 17.3842 7.41041 17.4925 7.63365 17.7091C7.85667 17.9255 7.96818 18.1875 7.96818 18.4951C7.96818 18.8025 7.85667 19.0644 7.63365 19.2807C7.41041 19.4973 7.14037 19.6056 6.82353 19.6056ZM17.1765 19.6056C16.8596 19.6056 16.5896 19.4973 16.3664 19.2807C16.1433 19.0644 16.0318 18.8025 16.0318 18.4951C16.0318 18.1875 16.1433 17.9255 16.3664 17.7091C16.5896 17.4925 16.8596 17.3842 17.1765 17.3842C17.4933 17.3842 17.7634 17.4925 17.9866 17.7091C18.2096 17.9255 18.3211 18.1875 18.3211 18.4951C18.3211 18.8025 18.2096 19.0644 17.9866 19.2807C17.7634 19.4973 17.4933 19.6056 17.1765 19.6056Z" fill="#5F6368"/>
</svg>
