<svg width="48" height="48" viewBox="0 0 48 48" fill="none" xmlns="http://www.w3.org/2000/svg">
  <!-- Face circle -->
  <circle cx="24" cy="24" r="12" stroke="currentColor" stroke-width="2" fill="none"/>
  
  <!-- Long hair -->
  <path d="M12 24 C12 15 16 10 24 10 C32 10 36 15 36 24" stroke="currentColor" stroke-width="2" fill="none"/>
  <path d="M12 24 C12 24 10 30 10 38" stroke="currentColor" stroke-width="2" fill="none" stroke-linecap="round"/>
  <path d="M36 24 C36 24 38 30 38 38" stroke="currentColor" stroke-width="2" fill="none" stroke-linecap="round"/>
  
  <!-- Hair top curves -->
  <path d="M18 13 Q20 11 22 11" stroke="currentColor" stroke-width="1.5" fill="none" stroke-linecap="round"/>
  <path d="M26 11 Q28 11 30 13" stroke="currentColor" stroke-width="1.5" fill="none" stroke-linecap="round"/>
  
  <!-- Eyes -->
  <circle cx="19" cy="23" r="1.5" fill="currentColor"/>
  <circle cx="29" cy="23" r="1.5" fill="currentColor"/>
  
  <!-- Nose -->
  <ellipse cx="24" cy="26" rx="2" ry="0.8" stroke="currentColor" stroke-width="1" fill="none"/>
  
  <!-- Smile -->
  <path d="M20 29 Q24 31 28 29" stroke="currentColor" stroke-width="1.5" fill="none" stroke-linecap="round"/>
</svg>
